<svg xmlns="http://www.w3.org/2000/svg" width="1280" height="320" viewBox="0 0 1280 320" role="img" aria-label="Triton Ocean Systems: the distributed intelligence layer for the ocean">
  <defs>
    <linearGradient id="bg" x1="0" y1="0" x2="1" y2="1">
      <stop offset="0" stop-color="#04121f"/>
      <stop offset="1" stop-color="#0a2a43"/>
    </linearGradient>
    <linearGradient id="line" x1="0" y1="0" x2="1" y2="0">
      <stop offset="0" stop-color="#2fb3c6" stop-opacity="0"/>
      <stop offset="0.5" stop-color="#2fb3c6" stop-opacity="0.9"/>
      <stop offset="1" stop-color="#2fb3c6" stop-opacity="0"/>
    </linearGradient>
  </defs>
  <rect width="1280" height="320" fill="url(#bg)"/>
  <g fill="none" stroke="#2fb3c6" stroke-opacity="0.18" stroke-width="1.5">
    <path d="M0 250 C 160 225, 320 275, 480 250 S 800 225, 960 250 S 1200 275, 1280 255"/>
    <path d="M0 272 C 160 247, 320 297, 480 272 S 800 247, 960 272 S 1200 297, 1280 277"/>
    <path d="M0 294 C 160 269, 320 319, 480 294 S 800 269, 960 294 S 1200 319, 1280 299"/>
  </g>
  <g stroke="#2fb3c6" stroke-opacity="0.35" stroke-width="1">
    <line x1="930" y1="95" x2="1030" y2="140"/>
    <line x1="1030" y1="140" x2="1130" y2="100"/>
    <line x1="1030" y1="140" x2="1070" y2="205"/>
    <line x1="1130" y1="100" x2="1190" y2="170"/>
    <line x1="1070" y1="205" x2="1190" y2="170"/>
  </g>
  <g fill="#2fb3c6">
    <circle cx="930" cy="95" r="5"/>
    <circle cx="1030" cy="140" r="7"/>
    <circle cx="1130" cy="100" r="5"/>
    <circle cx="1070" cy="205" r="5"/>
    <circle cx="1190" cy="170" r="5"/>
  </g>
  <text x="80" y="140" font-family="Segoe UI, Helvetica Neue, Arial, sans-serif" font-size="56" font-weight="700" fill="#ffffff" letter-spacing="1">TRITON OCEAN SYSTEMS</text>
  <rect x="80" y="160" width="520" height="2" fill="url(#line)"/>
  <text x="80" y="200" font-family="Segoe UI, Helvetica Neue, Arial, sans-serif" font-size="24" fill="#a9c7d8">The distributed intelligence layer for the ocean.</text>
</svg>
